<?xml version="1.0" encoding="UTF-8" ?>
<!DOCTYPE svg PUBLIC "-//W3C//DTD SVG 1.1//EN" "http://www.w3.org/Graphics/SVG/1.1/DTD/svg11.dtd">
<svg width="100pt" height="100pt" viewBox="0 0 100 100" version="1.1" xmlns="http://www.w3.org/2000/svg">
<path fill="#ffffff" opacity="1.00" d=" M 12.59 42.75 C 15.36 26.49 29.75 13.91 45.89 11.84 C 48.62 11.55 51.38 11.55 54.11 11.84 C 75.41 14.07 92.44 36.13 87.41 57.25 C 84.64 73.51 70.24 86.09 54.11 88.16 C 51.38 88.45 48.62 88.45 45.89 88.16 C 24.59 85.93 7.56 63.87 12.59 42.75 M 52.36 15.20 C 50.92 22.13 50.91 29.32 49.08 36.16 C 48.28 29.24 46.85 22.42 45.90 15.52 C 27.67 17.24 13.22 35.28 15.44 53.45 C 20.05 53.77 24.63 54.53 29.26 54.66 C 25.68 57.22 20.53 57.28 16.36 58.88 C 18.21 65.50 22.03 71.40 26.99 76.13 C 30.99 72.11 35.14 68.24 39.23 64.32 C 37.38 69.70 34.14 74.50 31.85 79.70 C 43.30 86.68 58.50 86.24 69.62 78.80 C 65.38 74.41 60.48 70.72 56.30 66.28 C 62.43 69.04 68.60 71.70 74.76 74.40 C 83.09 65.89 86.56 53.20 83.79 41.63 C 79.03 41.63 74.29 42.69 69.53 42.34 C 73.63 40.10 77.90 38.14 81.78 35.52 C 76.23 24.26 64.95 16.18 52.36 15.20 Z" />
<path fill="#482b46" opacity="1.00" d=" M 52.36 15.20 C 64.95 16.18 76.23 24.26 81.78 35.52 C 77.90 38.14 73.63 40.10 69.53 42.34 C 74.29 42.69 79.03 41.63 83.79 41.63 C 86.56 53.20 83.09 65.89 74.76 74.40 C 68.60 71.70 62.43 69.04 56.30 66.28 C 60.48 70.72 65.38 74.41 69.62 78.80 C 58.50 86.24 43.30 86.68 31.85 79.70 C 34.14 74.50 37.38 69.70 39.23 64.32 C 35.14 68.24 30.99 72.11 26.99 76.13 C 22.03 71.40 18.21 65.50 16.36 58.88 C 20.53 57.28 25.68 57.22 29.26 54.66 C 24.63 54.53 20.05 53.77 15.44 53.45 C 13.22 35.28 27.67 17.24 45.90 15.52 C 46.85 22.42 48.28 29.24 49.08 36.16 C 50.91 29.32 50.92 22.13 52.36 15.20 M 38.59 24.81 C 40.89 28.29 42.04 32.43 44.52 35.80 C 44.11 30.89 43.72 25.99 43.41 21.07 C 41.79 22.30 40.17 23.53 38.59 24.81 M 31.57 23.15 C 30.41 23.77 29.25 24.39 28.09 25.01 C 31.51 28.67 34.26 32.88 37.69 36.52 C 35.77 32.01 33.62 27.60 31.57 23.15 M 57.46 26.01 C 56.46 29.21 55.16 32.32 54.12 35.51 C 57.26 32.98 60.35 30.37 63.43 27.75 C 61.45 27.10 59.47 26.49 57.46 26.01 M 69.48 28.64 C 67.80 31.37 65.99 34.02 64.40 36.81 C 67.59 35.10 70.83 33.47 74.18 32.08 C 72.62 30.93 71.05 29.79 69.48 28.64 M 24.07 35.42 C 26.45 36.22 28.91 36.89 31.07 38.22 C 29.76 37.03 31.62 36.16 32.29 35.41 L 32.43 37.19 C 33.54 35.80 31.87 34.45 31.45 33.16 C 30.57 33.98 29.72 34.82 28.85 35.65 C 29.07 33.73 27.02 32.61 26.07 31.20 C 25.45 32.63 24.78 34.04 24.07 35.42 M 34.01 40.04 C 32.48 43.12 31.12 46.29 29.55 49.36 C 36.26 55.53 43.11 61.55 49.83 67.71 C 56.45 61.50 63.26 55.50 70.01 49.44 C 68.52 46.37 67.09 43.27 65.65 40.17 C 62.94 39.01 60.19 37.93 57.50 36.72 C 54.90 38.54 52.35 40.43 49.83 42.36 C 47.24 40.47 44.65 38.60 42.10 36.67 C 39.45 37.90 36.75 39.01 34.01 40.04 M 20.72 37.50 C 20.59 39.49 20.45 41.47 20.35 43.46 C 23.47 43.46 26.58 43.67 29.69 43.78 C 26.81 41.53 23.62 39.72 20.72 37.50 M 68.96 53.61 C 72.38 53.60 75.80 53.65 79.22 53.89 C 79.43 52.37 79.58 50.85 79.65 49.32 C 76.35 51.25 71.56 50.94 68.96 53.61 M 22.91 65.97 C 23.62 67.59 24.32 69.22 24.99 70.87 C 28.11 67.47 31.72 64.56 34.70 61.04 C 30.78 62.71 26.90 64.47 22.91 65.97 M 60.03 62.64 C 64.16 63.77 68.32 64.76 72.46 65.86 C 73.52 64.24 74.61 62.63 75.63 60.99 C 70.46 61.85 65.17 61.54 60.03 62.64 M 37.23 76.44 C 39.11 76.06 40.99 75.67 42.87 75.28 C 43.24 72.20 43.85 69.16 44.34 66.10 C 41.72 69.37 39.66 73.04 37.23 76.44 M 53.32 69.45 C 54.33 72.33 55.31 75.22 56.16 78.15 C 57.52 77.14 58.83 76.07 60.13 74.99 C 57.87 73.14 55.65 71.22 53.32 69.45 Z" />
<path fill="#ffffff" opacity="1.00" d=" M 38.59 24.81 C 40.17 23.53 41.79 22.30 43.41 21.07 C 43.72 25.99 44.11 30.89 44.52 35.80 C 42.04 32.43 40.89 28.29 38.59 24.81 Z" />
<path fill="#ffffff" opacity="1.00" d=" M 31.57 23.15 C 33.62 27.60 35.77 32.01 37.69 36.52 C 34.26 32.88 31.51 28.67 28.09 25.01 C 29.25 24.39 30.41 23.77 31.57 23.15 Z" />
<path fill="#ffffff" opacity="1.00" d=" M 57.46 26.01 C 59.47 26.49 61.45 27.10 63.43 27.75 C 60.35 30.37 57.26 32.98 54.12 35.51 C 55.16 32.32 56.46 29.21 57.46 26.01 Z" />
<path fill="#ffffff" opacity="1.00" d=" M 69.48 28.64 C 71.05 29.79 72.62 30.93 74.18 32.08 C 70.83 33.47 67.59 35.10 64.40 36.81 C 65.99 34.02 67.80 31.37 69.48 28.64 Z" />
<path fill="#ffffff" opacity="1.00" d=" M 24.07 35.42 C 24.78 34.04 25.45 32.63 26.07 31.20 C 27.02 32.61 29.07 33.73 28.85 35.65 C 29.72 34.82 30.57 33.98 31.45 33.16 C 31.87 34.45 33.54 35.80 32.43 37.19 L 32.29 35.41 C 31.62 36.16 29.76 37.03 31.07 38.22 C 28.91 36.89 26.45 36.22 24.07 35.42 Z" />
<path fill="#ffffff" opacity="1.00" d=" M 34.01 40.04 C 36.75 39.01 39.45 37.90 42.10 36.67 C 44.65 38.60 47.24 40.47 49.83 42.36 C 52.35 40.43 54.90 38.54 57.50 36.72 C 60.19 37.93 62.94 39.01 65.65 40.17 C 67.09 43.27 68.52 46.37 70.01 49.44 C 63.26 55.50 56.45 61.50 49.83 67.71 C 43.11 61.55 36.26 55.53 29.55 49.36 C 31.12 46.29 32.48 43.12 34.01 40.04 M 41.46 39.32 C 36.40 40.28 34.44 44.60 32.84 48.98 C 33.56 49.67 34.28 50.36 35.00 51.05 C 36.45 46.66 39.26 42.30 43.94 40.96 C 43.12 40.40 42.30 39.86 41.46 39.32 Z" />
<path fill="#ffffff" opacity="1.00" d=" M 20.72 37.50 C 23.62 39.72 26.81 41.53 29.69 43.78 C 26.58 43.67 23.47 43.46 20.35 43.46 C 20.45 41.47 20.59 39.49 20.72 37.50 Z" />
<path fill="#482b46" opacity="1.00" d=" M 41.46 39.32 C 42.30 39.86 43.12 40.40 43.94 40.96 C 39.26 42.30 36.45 46.66 35.00 51.05 C 34.28 50.36 33.56 49.67 32.84 48.98 C 34.44 44.60 36.40 40.28 41.46 39.32 Z" />
<path fill="#ffffff" opacity="1.00" d=" M 68.96 53.61 C 71.56 50.94 76.35 51.25 79.65 49.32 C 79.58 50.85 79.43 52.37 79.22 53.89 C 75.80 53.65 72.38 53.60 68.96 53.61 Z" />
<path fill="#ffffff" opacity="1.00" d=" M 22.91 65.97 C 26.90 64.47 30.78 62.71 34.70 61.04 C 31.72 64.56 28.11 67.47 24.99 70.87 C 24.32 69.22 23.62 67.59 22.91 65.97 Z" />
<path fill="#ffffff" opacity="1.00" d=" M 60.03 62.64 C 65.17 61.54 70.46 61.85 75.63 60.99 C 74.61 62.63 73.52 64.24 72.46 65.86 C 68.32 64.76 64.16 63.77 60.03 62.64 Z" />
<path fill="#ffffff" opacity="1.00" d=" M 37.23 76.44 C 39.66 73.04 41.72 69.37 44.34 66.10 C 43.85 69.16 43.24 72.20 42.87 75.28 C 40.99 75.67 39.11 76.06 37.23 76.44 Z" />
<path fill="#ffffff" opacity="1.00" d=" M 53.32 69.45 C 55.65 71.22 57.87 73.14 60.13 74.99 C 58.83 76.07 57.52 77.14 56.16 78.15 C 55.31 75.22 54.33 72.33 53.32 69.45 Z" />
</svg>
